<?xml version="1.0" encoding="UTF-8" standalone="no"?>
<!-- Created with Inkscape (http://www.inkscape.org/) -->

<svg
   width="16.485914mm"
   height="7.0343666mm"
   viewBox="0 0 16.485914 7.0343668"
   version="1.1"
   id="svg1"
   inkscape:version="1.4.3 (0d15f75042, 2025-12-25)"
   sodipodi:docname="logo2.svg"
   xmlns:inkscape="http://www.inkscape.org/namespaces/inkscape"
   xmlns:sodipodi="http://sodipodi.sourceforge.net/DTD/sodipodi-0.dtd"
   xmlns:xlink="http://www.w3.org/1999/xlink"
   xmlns="http://www.w3.org/2000/svg"
   xmlns:svg="http://www.w3.org/2000/svg">
  <sodipodi:namedview
     id="namedview1"
     pagecolor="#ffffff"
     bordercolor="#000000"
     borderopacity="0.25"
     inkscape:showpageshadow="2"
     inkscape:pageopacity="0.0"
     inkscape:pagecheckerboard="0"
     inkscape:deskcolor="#d1d1d1"
     inkscape:document-units="mm"
     inkscape:zoom="7.9999996"
     inkscape:cx="30.937501"
     inkscape:cy="3.0625001"
     inkscape:window-width="3072"
     inkscape:window-height="1667"
     inkscape:window-x="0"
     inkscape:window-y="0"
     inkscape:window-maximized="1"
     inkscape:current-layer="layer1">
    <inkscape:page
       x="0"
       y="0"
       width="16.485914"
       height="7.0343671"
       id="page2"
       margin="0"
       bleed="0" />
  </sodipodi:namedview>
  <defs
     id="defs1">
    <radialGradient
       inkscape:collect="always"
       xlink:href="#linearGradient9"
       id="radialGradient10"
       cx="50.169472"
       cy="46.245003"
       fx="50.169472"
       fy="46.245003"
       r="2.2809961"
       gradientTransform="matrix(5.0379932,0,0,4.2631524,-170.51532,-196.40719)"
       gradientUnits="userSpaceOnUse" />
    <linearGradient
       id="linearGradient9"
       inkscape:collect="always">
      <stop
         style="stop-color:#ffffff;stop-opacity:0.87692708;"
         offset="0"
         id="stop9" />
      <stop
         style="stop-color:#ffffff;stop-opacity:0;"
         offset="1"
         id="stop10" />
    </linearGradient>
  </defs>
  <g
     inkscape:label="Layer 1"
     inkscape:groupmode="layer"
     id="layer1"
     transform="translate(-43.542927,-46.034649)">
    <text
       xml:space="preserve"
       style="font-size:4.23333px;line-height:4.86175px;font-family:'Nimbus Sans';-inkscape-font-specification:'Nimbus Sans';text-align:center;text-decoration-color:#000000;writing-mode:lr-tb;direction:ltr;text-anchor:middle;fill:#44546f;fill-opacity:1;stroke-width:0.499999;stroke-linejoin:round;stroke-dasharray:0.499999, 0.499999"
       x="49.409615"
       y="50.520172"
       id="text1-2"><tspan
         sodipodi:role="line"
         id="tspan1-7"
         style="font-style:normal;font-variant:normal;font-weight:normal;font-stretch:normal;font-size:4.23333px;line-height:4.86175px;font-family:NewComputerModern08;-inkscape-font-specification:NewComputerModern08;fill:#44546f;fill-opacity:1;stroke-width:0.5"
         x="49.409615"
         y="50.520172">feelin</tspan></text>
    <g
       id="g12"
       transform="matrix(0.12470578,0,0,0.12470578,46.426653,48.959107)">
      <path
         style="fill:#bedeae;fill-opacity:1;stroke-width:4.18883;stroke-linejoin:round;stroke-dasharray:4.18883, 4.18883"
         d="M 68.871918,-0.02182927 H 82.118593 V -18.085467 l -5.042766,1.505298 -4.591177,3.612724 -2.93534,5.644894 z"
         id="path2-3" />
      <path
         style="fill:#90bced;fill-opacity:1;stroke-width:4.18883;stroke-linejoin:round;stroke-dasharray:4.18883, 4.18883"
         d="M 82.118593,-0.02182927 V 17.623102 H 79.107979 L 75.419991,15.708596 71.581454,12.095864 69.323507,7.3541575 68.871951,-0.02182927 Z"
         id="path3-6" />
      <path
         style="fill:#fed19b;fill-opacity:1;stroke-width:4.18883;stroke-linejoin:round;stroke-dasharray:4.18883, 4.18883"
         d="m 82.118593,-0.02182927 h 14.526179 c 0,0 -0.0754,-4.44064703 -0.150546,-4.74170683 -0.07539,-0.3010925 -2.107418,-5.0427661 -2.182692,-5.3438259 -0.0754,-0.301092 -2.634289,-4.064322 -2.634289,-4.064322 l -3.311648,-2.257956 -1.655836,-1.354776 -4.591177,-0.301094 z"
         id="path4-1" />
      <path
         style="fill:#dbb4d3;fill-opacity:1;stroke-width:4.18883;stroke-linejoin:round;stroke-dasharray:4.18883, 4.18883"
         d="M 82.118593,-0.02182927 V 17.623102 h 3.763263 l 5.042757,-2.591898 3.462203,-5.2685697 1.881623,-4.6664329 0.376325,-5.11803067 z"
         id="path5-2" />
      <text
         xml:space="preserve"
         style="font-size:51.9085px;line-height:59.6138px;font-family:'Nimbus Sans';-inkscape-font-specification:'Nimbus Sans';text-align:center;text-decoration-color:#000000;writing-mode:lr-tb;direction:ltr;text-anchor:middle;fill:#44546f;fill-opacity:1;stroke-width:6.1309;stroke-linejoin:round;stroke-dasharray:6.1309, 6.1309"
         x="82.701202"
         y="17.623098"
         id="text1-2-2-9"><tspan
           sodipodi:role="line"
           id="tspan1-7-6-3"
           style="font-style:normal;font-variant:normal;font-weight:normal;font-stretch:normal;font-size:51.9085px;line-height:59.6138px;font-family:NewComputerModernMath;-inkscape-font-specification:NewComputerModernMath;fill:#44546f;fill-opacity:1;stroke-width:6.1309"
           x="82.701202"
           y="17.623098">Q</tspan></text>
      <ellipse
         style="fill:url(#radialGradient10);stroke:none;stroke-width:2.94752;stroke-linejoin:round;stroke-dasharray:2.94752, 2.94752"
         id="path8"
         cx="82.238121"
         cy="0.74230915"
         rx="11.491643"
         ry="9.7242346" />
      <ellipse
         style="fill:#fea891;fill-opacity:1;stroke-width:2.09566;stroke-linejoin:round;stroke-dasharray:2.09566, 2.09566"
         id="path6-0"
         cx="73.662003"
         cy="-2.2132223"
         rx="1.8168546"
         ry="1.5229737" />
      <circle
         style="fill:#44546f;stroke-width:3.33797;stroke-linejoin:round;stroke-dasharray:3.33797, 3.33797"
         id="path6"
         cx="76.327896"
         cy="-4.4939213"
         r="2.6495178" />
      <ellipse
         style="fill:#ffffff;fill-opacity:1;stroke-width:0.920185;stroke-linejoin:round;stroke-dasharray:0.920185, 0.920185"
         id="path6-2"
         cx="70.076141"
         cy="-32.506187"
         rx="0.78935289"
         ry="0.67585111"
         transform="rotate(20.483778)" />
      <path
         style="fill:#93a3bd;fill-opacity:1;stroke-width:3.0876;stroke-linejoin:round;stroke-dasharray:3.0876, 3.0876"
         d="m 75.575136,-3.0540906 c -0.05697,0.2547646 0.317597,0.5349138 0.663762,0.6382098 0.346165,0.1033804 0.916969,2.769e-4 1.225392,-0.2297986 0.308382,-0.2299673 0.56189,-0.6913249 0.485068,-0.9445821 -0.07707,-0.2532563 -0.245466,-0.2928832 -0.459515,-0.2552676 -0.21405,0.037697 -0.272526,0.4786997 -0.510535,0.587107 -0.238094,0.1084072 -0.554937,-0.037697 -0.791354,0 -0.236418,0.037697 -0.555271,-0.051103 -0.612826,0.2042472 z"
         id="path7"
         sodipodi:nodetypes="zzzzzzzz" />
      <ellipse
         style="fill:#fea891;fill-opacity:1;stroke-width:2.09566;stroke-linejoin:round;stroke-dasharray:2.09566, 2.09566"
         id="path6-0-6"
         cx="91.379013"
         cy="-2.0553169"
         rx="1.8168546"
         ry="1.5229737" />
      <circle
         style="fill:#44546f;stroke-width:3.33797;stroke-linejoin:round;stroke-dasharray:3.33797, 3.33797"
         id="path6-26"
         cx="88.608109"
         cy="-4.4829597"
         r="2.6495178" />
      <ellipse
         style="fill:#ffffff;fill-opacity:1;stroke-width:0.920185;stroke-linejoin:round;stroke-dasharray:0.920185, 0.920185"
         id="path6-2-1"
         cx="81.583733"
         cy="-36.793243"
         rx="0.78935289"
         ry="0.67585111"
         transform="rotate(20.483778)" />
      <path
         style="fill:#93a3bd;fill-opacity:1;stroke-width:3.0876;stroke-linejoin:round;stroke-dasharray:3.0876, 3.0876"
         d="m 87.855356,-3.0430996 c -0.05697,0.2547646 0.317597,0.5349137 0.663762,0.6382107 0.346165,0.1033804 0.916969,2.76e-4 1.225393,-0.2297996 0.308382,-0.2299663 0.561889,-0.6913248 0.485066,-0.9445811 -0.07707,-0.2532572 -0.245466,-0.2928832 -0.459515,-0.2552676 -0.214049,0.037697 -0.272525,0.4786997 -0.510534,0.587107 -0.238093,0.1084063 -0.554937,-0.037697 -0.791354,0 -0.236417,0.037697 -0.555272,-0.051103 -0.612826,0.2042472 z"
         id="path7-8"
         sodipodi:nodetypes="zzzzzzzz" />
      <g
         id="g11"
         transform="matrix(10.537829,0,0,10.537829,-430.06611,-542.09777)">
        <path
           style="opacity:1;fill:#57354a;fill-opacity:1;stroke:none;stroke-width:0.499999;stroke-linejoin:round;stroke-dasharray:0.499999, 0.499999"
           d="m 48.41603,51.267686 c 0.0224,3.67e-4 0.03054,0.03422 0.04385,0.04677 0.01331,0.01255 0.01739,0.02283 0.03508,0.02923 0.01769,0.0064 0.05096,0.0045 0.06723,0 0.01627,-0.0045 0.01693,-0.006 0.02923,-0.01754 0.0123,-0.01159 0.01851,-0.05454 0.038,-0.05554 0.01949,-9.98e-4 0.01946,0.02616 0.03216,0.038 0.0127,0.01184 0.02752,0.02628 0.04385,0.03216 0.01633,0.0059 0.03362,0.006 0.04969,0.0029 0.01607,-0.0031 0.03055,-0.01157 0.04385,-0.02046 0.0133,-0.0089 0.02111,-0.01336 0.02785,-0.02285 0.0067,-0.0095 0.0069,-0.02515 0.01603,-0.02976 0.0091,-0.0046 0.02195,-0.0081 0.038,0.0088 0.01605,0.01692 0.01757,0.06871 0.01754,0.09939 -3.2e-5,0.03068 -0.0035,0.05187 -0.01462,0.08185 -0.01116,0.02998 -0.03002,0.06498 -0.05554,0.09354 -0.02552,0.02856 -0.07118,0.05862 -0.09647,0.07308 -0.02528,0.01446 -0.03095,0.01629 -0.04969,0.02046 -0.01874,0.0042 -0.03486,0.0047 -0.06139,0.0029 -0.02653,-0.0018 -0.06383,-0.0022 -0.09647,-0.01754 -0.03264,-0.01532 -0.06474,-0.04494 -0.09062,-0.07601 -0.02588,-0.03107 -0.05122,-0.07779 -0.06139,-0.108161 -0.01017,-0.03037 -0.0079,-0.04522 -0.0088,-0.06723 -9.37e-4,-0.02201 -0.0062,-0.04377 0.0029,-0.06431 0.0091,-0.02054 0.02733,-0.05005 0.04973,-0.04968 z"
           id="path10"
           sodipodi:nodetypes="zzzzzzzzzzzzzzzzzzzzzzzzzz" />
        <path
           style="opacity:1;fill:#f96a64;fill-opacity:1;stroke:none;stroke-width:0.499999;stroke-linejoin:round;stroke-dasharray:0.499999, 0.499999"
           d="m 48.467186,51.543934 c 7.64e-4,0.01794 0.03748,0.03612 0.05554,0.04677 0.01806,0.01065 0.02936,0.01439 0.04969,0.019 0.02033,0.0046 0.04829,0.0069 0.07162,0.0058 0.02333,-0.0011 0.04942,-0.0054 0.06724,-0.01169 0.01782,-0.0063 0.02566,-0.01113 0.03946,-0.02192 0.0138,-0.01079 0.04196,-0.02352 0.04093,-0.04385 -10e-4,-0.02033 -0.02871,-0.03023 -0.04677,-0.04093 -0.01806,-0.0107 -0.03977,-0.01734 -0.05993,-0.02192 -0.02016,-0.0046 -0.04102,-0.0065 -0.05993,-0.0058 -0.01891,6.55e-4 -0.03643,0.0038 -0.05262,0.0088 -0.01619,0.005 -0.03046,0.0136 -0.04385,0.02046 -0.01339,0.0069 -0.02631,0.01272 -0.03654,0.02046 -0.01023,0.0077 -0.0256,0.0069 -0.02484,0.02482 z"
           id="path11"
           sodipodi:nodetypes="zzzzzzzzzzzzzz" />
      </g>
    </g>
  </g>
</svg>
