<?xml version="1.0" encoding="UTF-8" standalone="no"?>
<!-- Created with Inkscape (http://www.inkscape.org/) -->

<svg
   width="39.007996mm"
   height="15.949311mm"
   viewBox="0 0 39.007995 15.949312"
   version="1.1"
   id="svg1"
   inkscape:version="1.4.3 (0d15f75042, 2025-12-25)"
   sodipodi:docname="logo2.svg"
   inkscape:export-filename="logo2.png"
   inkscape:export-xdpi="300"
   inkscape:export-ydpi="300"
   xmlns:inkscape="http://www.inkscape.org/namespaces/inkscape"
   xmlns:sodipodi="http://sodipodi.sourceforge.net/DTD/sodipodi-0.dtd"
   xmlns:xlink="http://www.w3.org/1999/xlink"
   xmlns="http://www.w3.org/2000/svg"
   xmlns:svg="http://www.w3.org/2000/svg">
  <sodipodi:namedview
     id="namedview1"
     pagecolor="#ffffff"
     bordercolor="#000000"
     borderopacity="0.25"
     inkscape:showpageshadow="2"
     inkscape:pageopacity="0.0"
     inkscape:pagecheckerboard="0"
     inkscape:deskcolor="#d1d1d1"
     inkscape:document-units="mm"
     inkscape:zoom="5.656854"
     inkscape:cx="131.61026"
     inkscape:cy="28.195884"
     inkscape:window-width="3072"
     inkscape:window-height="1667"
     inkscape:window-x="0"
     inkscape:window-y="0"
     inkscape:window-maximized="1"
     inkscape:current-layer="g12">
    <inkscape:page
       x="0"
       y="0"
       width="39.007996"
       height="15.949312"
       id="page1"
       margin="0"
       bleed="0" />
  </sodipodi:namedview>
  <defs
     id="defs1">
    <radialGradient
       inkscape:collect="always"
       xlink:href="#linearGradient9"
       id="radialGradient10"
       cx="50.169472"
       cy="46.245003"
       fx="50.169472"
       fy="46.245003"
       r="2.2809961"
       gradientTransform="matrix(12.506522,0,0,10.583024,-421.99681,-486.9914)"
       gradientUnits="userSpaceOnUse" />
    <linearGradient
       id="linearGradient9"
       inkscape:collect="always">
      <stop
         style="stop-color:#ffffff;stop-opacity:0.87692708;"
         offset="0"
         id="stop9" />
      <stop
         style="stop-color:#ffffff;stop-opacity:0;"
         offset="1"
         id="stop10" />
    </linearGradient>
  </defs>
  <g
     inkscape:label="Layer 1"
     inkscape:groupmode="layer"
     id="layer1"
     transform="translate(-40.035014,-42.526737)">
    <text
       xml:space="preserve"
       style="font-size:10.509px;line-height:12.069px;font-family:'Nimbus Sans';-inkscape-font-specification:'Nimbus Sans';text-align:center;text-decoration-color:#000000;writing-mode:lr-tb;direction:ltr;text-anchor:middle;fill:#44546f;fill-opacity:1;stroke-width:1.24122;stroke-linejoin:round;stroke-dasharray:1.24122, 1.24122"
       x="53.993465"
       y="52.906425"
       id="text1-2"><tspan
         sodipodi:role="line"
         id="tspan1-7"
         style="font-style:normal;font-variant:normal;font-weight:normal;font-stretch:normal;font-size:10.509px;line-height:12.069px;font-family:NewComputerModern08;-inkscape-font-specification:NewComputerModern08;fill:#44546f;fill-opacity:1;stroke-width:1.24122"
         x="53.993465"
         y="52.906425">feelin</tspan></text>
    <g
       id="g12"
       transform="matrix(0.12470578,0,0,0.12470578,46.426653,48.959107)">
      <path
         style="fill:#bedeae;fill-opacity:1;stroke-width:10.3985;stroke-linejoin:round;stroke-dasharray:10.3985, 10.3985"
         d="m 172.26788,0.52370287 h 32.8841 V -43.330667 l -12.51837,2.749271 -11.39734,8.968375 -7.28681,14.013114 z"
         id="path2-3"
         sodipodi:nodetypes="ccccccc" />
      <path
         style="fill:#90bced;fill-opacity:1;stroke-width:10.3985;stroke-linejoin:round;stroke-dasharray:10.3985, 10.3985"
         d="M 205.15198,0.52370287 V 44.326202 h -7.47368 l -9.15521,-4.75265 -9.52893,-8.968393 -5.60523,-11.771007 -1.12097,-18.31044913 z"
         id="path3-6" />
      <path
         style="fill:#fed19b;fill-opacity:1;stroke-width:10.3985;stroke-linejoin:round;stroke-dasharray:10.3985, 10.3985"
         d="m 205.15198,0.52370287 h 36.0604 c 0,0 -0.18719,-11.02364487 -0.37374,-11.77100787 -0.18718,-0.747443 -5.23155,-12.518369 -5.4184,-13.26573 -0.18718,-0.747443 -6.53947,-10.089439 -6.53947,-10.089439 l -8.22098,-5.605243 -4.93344,-1.47036 -10.57439,-1.40581 z"
         id="path4-1"
         sodipodi:nodetypes="ccccccccc" />
      <path
         style="fill:#dbb4d3;fill-opacity:1;stroke-width:10.3985;stroke-linejoin:round;stroke-dasharray:10.3985, 10.3985"
         d="M 205.15198,0.52370287 V 44.326202 h 9.34208 l 12.51835,-6.434234 8.59472,-13.078914 4.671,-11.584142 0.93422,-12.70520913 z"
         id="path5-2" />
      <ellipse
         style="fill:url(#radialGradient10);stroke:none;stroke-width:7.31705;stroke-linejoin:round;stroke-dasharray:7.31705, 7.31705"
         id="path8"
         cx="205.44867"
         cy="2.4206347"
         rx="28.527325"
         ry="24.139839" />
      <ellipse
         style="fill:#fea891;fill-opacity:1;stroke-width:5.20235;stroke-linejoin:round;stroke-dasharray:5.20235, 5.20235"
         id="path6-0"
         cx="184.15898"
         cy="-4.9163013"
         rx="4.5102344"
         ry="3.7806919" />
      <circle
         style="fill:#44546f;stroke-width:8.28631;stroke-linejoin:round;stroke-dasharray:8.28631, 8.28631"
         id="path6"
         cx="190.77692"
         cy="-10.578002"
         r="6.5772715" />
      <ellipse
         style="fill:#ffffff;fill-opacity:1;stroke-width:2.28431;stroke-linejoin:round;stroke-dasharray:2.28431, 2.28431"
         id="path6-2"
         cx="175.37747"
         cy="-80.607353"
         rx="1.959522"
         ry="1.6777604"
         transform="rotate(20.483778)" />
      <path
         style="fill:#93a3bd;fill-opacity:1;stroke-width:7.66478;stroke-linejoin:round;stroke-dasharray:7.66478, 7.66478"
         d="m 188.90823,-7.0037065 c -0.14149,0.6324395 0.78843,1.3278922 1.64775,1.5843194 0.85935,0.256634 2.27632,6.87e-4 3.04196,-0.5704626 0.76555,-0.5708804 1.39486,-1.7161743 1.20416,-2.3448697 -0.1914,-0.6286934 -0.60934,-0.7270647 -1.14071,-0.6336877 -0.53136,0.093589 -0.67653,1.1883443 -1.26738,1.4574578 -0.59105,0.2691177 -1.37761,-0.093589 -1.96448,0 -0.5869,0.093589 -1.37844,-0.1268565 -1.52132,0.5070339 z"
         id="path7"
         sodipodi:nodetypes="zzzzzzzz" />
      <ellipse
         style="fill:#fea891;fill-opacity:1;stroke-width:5.20235;stroke-linejoin:round;stroke-dasharray:5.20235, 5.20235"
         id="path6-0-6"
         cx="228.14041"
         cy="-4.5243092"
         rx="4.5102344"
         ry="3.7806919" />
      <circle
         style="fill:#44546f;stroke-width:8.28631;stroke-linejoin:round;stroke-dasharray:8.28631, 8.28631"
         id="path6-26"
         cx="221.26181"
         cy="-10.550788"
         r="6.5772715" />
      <ellipse
         style="fill:#ffffff;fill-opacity:1;stroke-width:2.28431;stroke-linejoin:round;stroke-dasharray:2.28431, 2.28431"
         id="path6-2-1"
         cx="203.94441"
         cy="-91.249733"
         rx="1.959522"
         ry="1.6777604"
         transform="rotate(20.483778)" />
      <path
         style="fill:#93a3bd;fill-opacity:1;stroke-width:7.66478;stroke-linejoin:round;stroke-dasharray:7.66478, 7.66478"
         d="m 219.39316,-6.9764213 c -0.14151,0.6324386 0.78843,1.3278922 1.64774,1.5843215 0.85934,0.256634 2.27633,6.839e-4 3.04196,-0.5704667 0.76555,-0.5708763 1.39486,-1.7161723 1.20416,-2.3448656 -0.1914,-0.6286954 -0.60937,-0.7270647 -1.14072,-0.6336876 -0.53136,0.093589 -0.67653,1.1883442 -1.26739,1.4574577 -0.59103,0.2691136 -1.37759,-0.093589 -1.96447,0 -0.5869,0.093589 -1.37843,-0.1268564 -1.52131,0.5070339 z"
         id="path7-8"
         sodipodi:nodetypes="zzzzzzzz" />
      <g
         id="g11"
         transform="matrix(26.159538,0,0,26.159538,-1066.3163,-1345.1478)">
        <path
           style="opacity:1;fill:#57354a;fill-opacity:1;stroke:none;stroke-width:0.499999;stroke-linejoin:round;stroke-dasharray:0.499999, 0.499999"
           d="m 48.41603,51.267686 c 0.0224,3.67e-4 0.03054,0.03422 0.04385,0.04677 0.01331,0.01255 0.01739,0.02283 0.03508,0.02923 0.01769,0.0064 0.05096,0.0045 0.06723,0 0.01627,-0.0045 0.01693,-0.006 0.02923,-0.01754 0.0123,-0.01159 0.01851,-0.05454 0.038,-0.05554 0.01949,-9.98e-4 0.01946,0.02616 0.03216,0.038 0.0127,0.01184 0.02752,0.02628 0.04385,0.03216 0.01633,0.0059 0.03362,0.006 0.04969,0.0029 0.01607,-0.0031 0.03055,-0.01157 0.04385,-0.02046 0.0133,-0.0089 0.02111,-0.01336 0.02785,-0.02285 0.0067,-0.0095 0.0069,-0.02515 0.01603,-0.02976 0.0091,-0.0046 0.02195,-0.0081 0.038,0.0088 0.01605,0.01692 0.01757,0.06871 0.01754,0.09939 -3.2e-5,0.03068 -0.0035,0.05187 -0.01462,0.08185 -0.01116,0.02998 -0.03002,0.06498 -0.05554,0.09354 -0.02552,0.02856 -0.07118,0.05862 -0.09647,0.07308 -0.02528,0.01446 -0.03095,0.01629 -0.04969,0.02046 -0.01874,0.0042 -0.03486,0.0047 -0.06139,0.0029 -0.02653,-0.0018 -0.06383,-0.0022 -0.09647,-0.01754 -0.03264,-0.01532 -0.06474,-0.04494 -0.09062,-0.07601 -0.02588,-0.03107 -0.05122,-0.07779 -0.06139,-0.108161 -0.01017,-0.03037 -0.0079,-0.04522 -0.0088,-0.06723 -9.37e-4,-0.02201 -0.0062,-0.04377 0.0029,-0.06431 0.0091,-0.02054 0.02733,-0.05005 0.04973,-0.04968 z"
           id="path10"
           sodipodi:nodetypes="zzzzzzzzzzzzzzzzzzzzzzzzzz" />
        <path
           style="opacity:1;fill:#f96a64;fill-opacity:1;stroke:none;stroke-width:0.499999;stroke-linejoin:round;stroke-dasharray:0.499999, 0.499999"
           d="m 48.467186,51.543934 c 7.64e-4,0.01794 0.03748,0.03612 0.05554,0.04677 0.01806,0.01065 0.02936,0.01439 0.04969,0.019 0.02033,0.0046 0.04829,0.0069 0.07162,0.0058 0.02333,-0.0011 0.04942,-0.0054 0.06724,-0.01169 0.01782,-0.0063 0.02566,-0.01113 0.03946,-0.02192 0.0138,-0.01079 0.04196,-0.02352 0.04093,-0.04385 -10e-4,-0.02033 -0.02871,-0.03023 -0.04677,-0.04093 -0.01806,-0.0107 -0.03977,-0.01734 -0.05993,-0.02192 -0.02016,-0.0046 -0.04102,-0.0065 -0.05993,-0.0058 -0.01891,6.55e-4 -0.03643,0.0038 -0.05262,0.0088 -0.01619,0.005 -0.03046,0.0136 -0.04385,0.02046 -0.01339,0.0069 -0.02631,0.01272 -0.03654,0.02046 -0.01023,0.0077 -0.0256,0.0069 -0.02484,0.02482 z"
           id="path11"
           sodipodi:nodetypes="zzzzzzzzzzzzzz" />
      </g>
      <text
         xml:space="preserve"
         style="font-size:128.86px;line-height:147.988px;font-family:'Nimbus Sans';-inkscape-font-specification:'Nimbus Sans';text-align:center;text-decoration-color:#000000;writing-mode:lr-tb;direction:ltr;text-anchor:middle;fill:#44546f;fill-opacity:1;stroke-width:15.2196;stroke-linejoin:round;stroke-dasharray:15.2196, 15.2196"
         x="206.59825"
         y="44.326195"
         id="text1-2-2-9"><tspan
           sodipodi:role="line"
           id="tspan1-7-6-3"
           style="font-style:normal;font-variant:normal;font-weight:normal;font-stretch:normal;font-size:128.86px;line-height:147.988px;font-family:NewComputerModernMath;-inkscape-font-specification:NewComputerModernMath;fill:#44546f;fill-opacity:1;stroke-width:15.2196"
           x="206.59825"
           y="44.326195">Q</tspan></text>
    </g>
  </g>
</svg>
